Coordinates
version=1
nRows=11
nColumns=40
inDegrees=yes

Units are S.I. units (second, meters, Newtons, ...)
Angles are in degrees.

endheader
time	pelvis_tilt	pelvis_list	pelvis_rotation	pelvis_tx	pelvis_ty	pelvis_tz	hip_flexion_r	hip_adduction_r	hip_rotation_r	knee_angle_r	knee_angle_r_beta	ankle_angle_r	subtalar_angle_r	mtp_angle_r	hip_flexion_l	hip_adduction_l	hip_rotation_l	knee_angle_l	knee_angle_l_beta	ankle_angle_l	subtalar_angle_l	mtp_angle_l	lumbar_extension	lumbar_bending	lumbar_rotation	arm_flex_r	arm_add_r	arm_rot_r	elbow_flex_r	pro_sup_r	wrist_flex_r	wrist_dev_r	arm_flex_l	arm_add_l	arm_rot_l	elbow_flex_l	pro_sup_l	wrist_flex_l	wrist_dev_l
      1.26000000	      6.01823819	     -3.97539272	      1.71007453	     -0.07762747	      0.90784654	     -1.41561137	     -3.05977723	      6.06166022	    -17.49019734	    -17.41188584	     -0.30389474	      9.65442468	      3.32347166	     -3.11793203	     15.85336779	      6.73759493	      6.55357131	    -53.28153647	     -0.92993824	      2.92331632	      2.76649273	    -14.49289245	    -11.88525606	      5.41732183	      1.68094119	      9.26284358	    -11.35443821	     21.53235282	     18.16051843	     89.95437384	      0.00000000	      0.00000000	      4.40997667	      6.67090668	    -13.84305951	     13.74710904	     89.95437384	      0.00000000	      0.00000000
      1.27000000	      5.79516609	     -4.06734927	      1.64665438	     -0.06897771	      0.90708228	     -1.41504001	     -3.42630240	      6.17647436	    -17.73355043	    -17.43644463	     -0.30432337	      9.83665175	      3.24577116	     -3.12647991	     17.05250054	      6.80344032	      6.79159793	    -51.61223733	     -0.90080348	      3.08677754	      2.74622449	    -14.27175547	    -11.67943568	      5.41237056	      1.90283430	      9.80218190	    -11.53047130	     21.41691901	     18.61856012	     89.95437384	      0.00000000	      0.00000000	      3.56413395	      6.86457813	    -13.81344880	     13.56731564	     89.95437384	      0.00000000	      0.00000000
      1.28000000	      6.10816332	     -3.68254337	      1.39687951	     -0.05964910	      0.90719349	     -1.41462782	     -4.68778017	      5.81853787	    -17.44985430	    -17.04704439	     -0.29752705	     10.53419517	      3.75050082	     -3.35785160	     17.12811713	      6.24383963	      7.22024511	    -49.17551205	     -0.85827460	      3.76798461	      2.69261127	    -14.29048793	    -12.04747330	      4.87819244	      2.26212490	     10.28399763	    -11.67350347	     21.24763486	     19.08410644	     89.95437384	      0.00000000	      0.00000000	      2.71669601	      7.09561203	    -13.64875344	     13.45939556	     89.95437384	      0.00000000	      0.00000000
      1.29000000	      5.87205295	     -3.85305627	      1.30242329	     -0.05081213	      0.90617761	     -1.41421872	     -5.06909327	      6.00055257	    -17.71232743	    -17.07880712	     -0.29808142	     10.68239534	      3.72690746	     -3.37935923	     18.14820079	      6.44140887	      7.67909501	    -47.10471034	     -0.82213229	      3.90223000	      2.78031108	    -14.06240821	    -11.81394131	      4.97242655	      2.49208752	     10.81473268	    -11.86129278	     21.08791281	     19.53013089	     89.95437384	      0.00000000	      0.00000000	      1.85287391	      7.25924215	    -13.59163613	     13.32665577	     89.95437384	      0.00000000	      0.00000000
      1.30000000	      6.42334412	     -3.32701457	      0.86640441	     -0.04159732	      0.90654860	     -1.41382170	     -6.53173383	      5.42517890	    -17.33617536	    -16.78494840	     -0.29295261	     11.21960589	      4.38089132	     -3.68360701	     17.62385790	      5.81924039	      8.56020485	    -44.07124430	     -0.76918832	      4.25198853	      3.09038634	    -13.94114388	    -12.51572736	      4.26479415	      3.04576439	     11.35140372	    -12.01342237	     20.74816883	     20.04646972	     89.95437384	      0.00000000	      0.00000000	      1.08603325	      7.46703357	    -13.26558422	     13.42562202	     89.95437384	      0.00000000	      0.00000000
      1.31000000	      6.11844868	     -3.58716004	      0.83589090	     -0.03291336	      0.90517692	     -1.41355141	     -6.83111324	      5.71079022	    -17.64406040	    -16.78026896	     -0.29287094	     11.40313502	      4.35595282	     -3.71601347	     18.63651812	      6.10511905	      8.95181603	    -41.89550635	     -0.73121453	      4.35872155	      3.13787269	    -13.71509629	    -12.22106922	      4.48614762	      3.19845341	     11.86190771	    -12.17595650	     20.62206604	     20.43231382	     89.95437384	      0.00000000	      0.00000000	      0.27078269	      7.61063010	    -13.20506337	     13.28117060	     89.95437384	      0.00000000	      0.00000000
      1.32000000	      6.66178107	     -3.08850938	      0.35548783	     -0.02363791	      0.90538584	     -1.41336545	     -8.20907118	      5.07018116	    -17.45848814	    -16.62893708	     -0.29022970	     11.85187645	      5.01533148	     -4.15184997	     17.91106952	      5.46628690	      9.81325064	    -38.51357686	     -0.67218872	      4.01337238	      3.30901730	    -13.33689079	    -12.92037596	      3.83572276	      3.70006801	     12.40482361	    -12.31915256	     20.27800938	     20.97836346	     89.95437384	      0.00000000	      0.00000000	     -0.55573182	      7.78567576	    -12.65618167	     13.48053228	     89.95437384	      0.00000000	      0.00000000
      1.33000000	      6.40042653	     -3.14897146	      0.24181375	     -0.01493213	      0.90401715	     -1.41312078	     -8.57253256	      5.14014538	    -17.46046019	    -16.60250203	     -0.28976832	     12.15726984	      5.20842026	     -4.37156563	     18.50895539	      5.46863822	     10.28423843	    -35.73194062	     -0.62364001	      3.57153252	      3.22935353	    -12.97773382	    -12.70320968	      3.81556023	      3.92478450	     12.86393150	    -12.45388669	     20.15327485	     21.42399771	     89.95437384	      0.00000000	      0.00000000	     -1.34296458	      7.95470614	    -12.38158355	     13.53163571	     89.95437384	      0.00000000	      0.00000000
      1.34000000	      6.47265793	     -3.05122130	      0.01966835	     -0.00580273	      0.90316620	     -1.41322626	     -9.33800200	      4.94470375	    -17.44016216	    -16.62660771	     -0.29018905	     12.48415105	      5.46750439	     -4.72423366	     18.52947993	      5.32865890	     11.12356041	    -32.80010993	     -0.57246991	      2.93645408	      3.03858815	    -12.48699202	    -12.83792145	      3.65046826	      4.25163359	     13.31192288	    -12.65549218	     20.03381579	     21.88968187	     89.95437384	      0.00000000	      0.00000000	     -2.11781697	      8.04279750	    -11.91699190	     13.62011426	     89.95437384	      0.00000000	      0.00000000
      1.35000000	      6.20511723	     -3.16739947	     -0.12098283	      0.00292140	      0.90168049	     -1.41312184	     -9.63442828	      5.01413347	    -17.43890465	    -16.73337787	     -0.29205254	     12.76969066	      5.65668437	     -4.97468638	     18.99218274	      5.39861542	     11.71226961	    -29.98975208	     -0.52341992	      2.15197583	      2.62437229	    -12.04308062	    -12.63358880	      3.70294680	      4.48505103	     13.75045948	    -12.79265078	     19.92908748	     22.30132202	     89.95437384	      0.00000000	      0.00000000	     -2.88979380	      8.16285916	    -11.54982447	     13.72996928	     89.95437384	      0.00000000	      0.00000000
      1.36000000	      6.02059872	     -3.19417085	     -0.27994510	      0.01179340	      0.90029554	     -1.41331025	    -10.02609597	      4.95590822	    -17.35246990	    -16.86863456	     -0.29441321	     13.11669295	      5.77798405	     -5.26603300	     19.20894165	      5.34954175	     12.44140924	    -27.07426127	     -0.47253500	      1.37074767	      1.95466279	    -11.63002331	    -12.50649492	      3.69088861	      4.68170240	     14.16798747	    -12.96689988	     19.99160014	     22.77047617	     89.95437384	      0.00000000	      0.00000000	     -3.63526952	      8.22836863	    -11.14256609	     13.78392119	     89.95437384	      0.00000000	      0.00000000
